<?xml version="1.0" encoding="utf-8"?>
<!-- Generator: Adobe Illustrator 18.0.0, SVG Export Plug-In . SVG Version: 6.00 Build 0)  -->
<!DOCTYPE svg PUBLIC "-//W3C//DTD SVG 1.1//EN" "http://www.w3.org/Graphics/SVG/1.1/DTD/svg11.dtd">
<svg version="1.1" id="Layer_1" xmlns="http://www.w3.org/2000/svg" xmlns:xlink="http://www.w3.org/1999/xlink" x="0px" y="0px"
	 viewBox="0 0 686.9 195.4" enable-background="new 0 0 686.9 195.4" xml:space="preserve">
<g>
	<defs>
		<path id="SVGID_1_" d="M96,0.8c26.5,0,50.5,10.7,67.9,28.1C181.2,46.3,192,70.3,192,96.8c0,26.5-10.7,50.5-28.1,67.9
			c-17.4,17.4-41.4,28.1-67.9,28.1c-26.5,0-50.5-10.7-67.9-28.1C10.7,147.3,0,123.3,0,96.8c0-26.5,10.7-50.5,28.1-67.9
			C45.5,11.6,69.5,0.8,96,0.8 M95.2,51.6c0.1,2.3-1.2,1.9-3.3,2.4c-0.7,0.2-3.8,1.3-4.1,1.5c0.5,0.8,2.4,0.7,3.5,1.9
			c1,1.1,0.4,3.3-0.4,4.1c-1.7,0.3-4.1-0.2-5.8-0.3c-3-0.1-2.3,1.7-2.1,4.1c0.1,0.7-0.1,1.2-0.3,1.5c-4.8-0.2-9.7-0.2-14.5,0
			c-6.3,0.2-12.5,0.8-18.6,1.7c-0.5-0.8-1.2-1.4-2-1.9c2.4-6.4,5.3-12.6,8.4-18.4c11.5-21.3,27.3-38,44.8-44.1
			c-1.6-0.1-3.2-0.1-4.9-0.1c-1.2,0-2.5,0-3.7,0.1c-15.4,8-29,23.5-39.3,42.5c-3.3,6.1-6.2,12.5-8.7,19.2c-2.8,0.1-5.1,2.2-5.6,4.9
			c-4.7,1.1-9.3,2.5-13.7,4.1c-0.7-0.6-1.5-1-2.4-1.2c-0.6-4-1-8.1-1.1-12.1c0.3-0.2,0.6-0.4,1-0.5c1.3-0.4,2.9-0.6,3.9-1.1
			c0.1-1-0.5-2.1-1-2.5c-1,0.7-0.2,1.2-1.7,1.2l-0.4-1.7c-1,0.4-0.5,0.5-1.4,0.8c-0.2-0.1-0.3-0.3-0.4-0.4c0-0.3,0-0.7,0-1l0-0.1
			c0-0.1,0.1-0.2,0.1-0.3c0.1-0.3,0-0.6-0.1-0.8c0-0.7,0-1.4,0.1-2.1c0.1-0.1,0.3-0.2,0.6-0.3l0,2c0.9,0.4,1.5-0.2,1.9-0.6
			c0.2-1-0.7-0.2,0.3-1c1.3-1.1,2.5-0.2,3.4-1c0.1-0.1,1.3-1.5,1.4-0.5c0,0.1,0.1,0.1,0.1,0.2c0.2,1.5,0.2-1.2,0,0.3
			c0,0.4,0,0.3-0.3,0.6c-0.5,0.6-0.4,0.1-0.9,1.1c-0.4,0.7-1,2.1-1,2.8c2,0.3,2.8-0.5,4.2,0.6c1.7-0.5,0.9-0.5,2.6,0
			c0.3-1.1-0.8-2.9-1.4-3.6c-2.2-0.2-1,0.3-2.8-0.8c0.4-0.9,1.6-2.7,1.6-3.7c-0.6-0.5-1.1-0.4-1.6-0.8c-0.6-0.4-0.6-0.8-1.1-1.5
			c-1.9-2.2-3,0.1-3.9-1.8c-0.3-0.8-0.4-1.5-0.9-2.2c-0.3-0.4-0.7-0.8-1-1.3c0.1-0.6,0.2-1.3,0.4-1.9C15.1,49.8,9.2,61.7,6,74.7
			c0.4-0.6,0.5-0.9,1.3-1.2c0.6-0.3,1.4-0.6,1.9-0.9c-0.2-1.3-1.2-1.7-1.2-3.3c1.3-0.3,0.6,1,1.6-0.1c0.6-0.6,0.2-1.2,0.2-2
			c2.1-0.8,0.8,0,1.2-1.8c1.1-0.3,5.2,1,4.2-1c-0.2-0.3-0.4-0.4-0.6-0.8c-0.4-0.8-0.2-1.5,0.3-2c0.7-0.7,1-0.5,2-0.7
			c0.7-0.1,0.9-0.2,0.9-0.4c0.1,4.5,0.5,9,1.2,13.6c-1.4,0.8-2.4,2.3-2.4,4.1c-1.6,0.8-3.2,1.6-4.8,2.4c-2.7,1.5-5.4,3.1-7.9,4.9
			c-0.2,1.6-0.3,3.1-0.4,4.7c1,0.1,0.7,0.1,1.3,0.6c0.5,0.5,0.6,0.5,1.2,0.9c0.8,0.6,1.7,1.4,3.1,0.8c-0.2-1.8-2.6-1.5-4.3-3
			l-0.4-0.2c2.8-2.1,5.8-4,8.9-5.7c1.4-0.8,2.8-1.5,4.3-2.2c0.8,0.9,1.8,1.6,3.1,1.7c2.1,9.3,5.4,18.6,9.6,27.6
			c-0.3,0.1-0.7,0.3-1.2,0.3c-1.4-1.5-1-3-4.6-3.3c0.3-1.1,1.1-2.1,0.9-3.5c-0.5,0.6-0.4,1-1.2,1.5l-0.8-0.8
			c-0.4-0.3-0.7-0.4-1.3-0.4c-1.5,0-1.1,0.6-1.8,1.5c-0.5-0.4-0.5-1-1.2-1.3c-0.9-0.3-1.5,0.2-2.2,0.4l-0.9-1.8
			c-1.4,0.3-2.1,1.2-2.3,2.4l-0.3,1.3c0,0-0.1,0.1-0.1,0.2c-1.2-2.2,0.5-3.3,0.1-4.6c-1,0-3.1,1.4-3.8,2c-0.9,0.9-1.4,2.8-3,2.9
			c-0.6-0.4-0.7-1-1.4-1.4c-1-0.5-0.7-0.1-1.5,0.3c2.3,21.6,12,41,26.6,55.6c0.8,0.8,1.7,1.7,2.6,2.5c0.5-0.7,1-0.9,1.5-1.7
			c0.8-1.2,0.5-1.4,1-2.7c0.5-1.4,1.1-0.7,1.8-2c1-2,1.3-1,1.8-2c0.6-1.2-0.7-2.1,0.1-3.5c2.4,6.8,5.6,13.2,9.7,19
			c-1.7,0.5-3.4,1-5.1,1.4c1.3,0.9,2.6,1.7,4,2.6c1.1-0.3,2.2-0.7,3.4-1c1.5,1.9,3.2,3.8,5,5.5c3.5,1.6,7,3.1,10.7,4.3
			c-4.6-3.2-8.6-6.9-12.1-11c4.8-1.7,9.7-3.7,14.5-5.9c1.1,1.1,2.6,1.8,4.3,1.8c1.4,0,2.6-0.5,3.6-1.2c11.7,8.6,24.6,15.1,38.2,18.9
			c2.4-0.5,4.8-1.1,7.2-1.9c-15.6-3.3-30.3-10.3-43.4-19.9c0.2-0.6,0.3-1.3,0.3-1.9c0-0.3,0-0.7-0.1-1c0.4-0.2,0.8-0.4,1.2-0.7
			c9-5,18-11,26.6-17.6c0.2,0.5,0.5,1.1,0.7,1.8c0.9,1.9,1.3,2,2.3,3.4c2.3,3.4-2.5,2.8,1.6,8c1.7,2.3,0.7,7.4,3.6,7.8
			c1.1,0.1,2-1.4,3.8-1.8c1.8-0.4,3.2,0.5,5-0.6c0.7-0.4,1-0.8,1.4-1.4l2.5-3.2c3.6-4.1,1.3-2.4,1.3-5.8c3.1-2,4.4,0.7,3-5
			c-0.6-2.5,2.3-4.7,3.5-5.7c3.1-2.4,2.5-4.1,2.5-6.8c0-2.4,0.9-1.4-0.7-3.5c-0.5-0.6-1.1-2.7-1.2-3.7c-0.2-1.5,0.3-2.6,1.1-3.5
			c2.1-2.1,3.2-6,6.7-7.8c0.9-0.5,1.8-1.4,2.2-2.4c0.7-1.9,5.1-9,3.7-10.4c-0.5-0.2-1-0.2-1.5-0.1c1.4-1.8,2.8-3.6,4.2-5.5
			c0.1,0,0.2-0.1,0.4-0.1c0.6-0.2,1.2-0.6,1.9-1.1c-2.3,20.4-7.3,40.7-14.6,58.7c-4.3,10.7-9.4,20.5-15.2,29c1.9-0.6,3.7-1.3,5.5-2
			c4.9-7.8,9.2-16.4,12.9-25.7c8-19.7,13.2-42.1,15.3-64.5c1.2-0.1,2.2-0.5,3.1-1.1c4.9,2.8,9.4,5.7,13.4,8.9
			c0.7,1.7,1.6,3.4,2.4,4.9c1,1.7,0.7,3.8,1.4,4.7c1.1-0.1,1.5-2,2.6-3.8c1.9,1.9,3.6,3.9,5.2,5.9c0.3-1.6,0.5-3.1,0.7-4.7
			c-1.4-1.7-3-3.3-4.6-4.9c0-0.5-0.1-1.1-0.2-1.9c-0.4-2.8,1.1-2.6,2.6-3.9c1-0.9,1.9-2.4,2.8-3.2c-0.9-24.2-11.1-46.1-27.1-62.1
			c-3.6-3.6-7.5-6.9-11.6-9.8c0.3,0.9,0.6,1.9,0.8,2.9c0,0.2,0,0.4,0,0.7L151,25c0.3,1.2,0.6,2.4,0.9,3.5c-0.4-0.1-0.8,0-1.4,0.4
			c-1.6,1-2.2,0.5-4.1,0.6c-0.7,0.7-0.9,1.2-1.5,1.6c-0.6-1.3,1.5-3.2-1.1-3.1c-0.5,0-1.1,0.2-1.4,0.2c-0.3,1.7,0.4,2.3,0.3,4
			c-0.7-0.3-0.6-0.6-1-1.3l-3.6,1.3c-0.1,1,0.2,1.9-0.9,2c-1,0.1-1.5-0.5-2.2-0.8c-0.6,0.3-1,1-2.1,0.7c-0.1-0.5,0-1.2-0.2-1.6
			c-0.3-0.8-0.4-0.4-0.8-1.2c1.8,0.3,2.3,1.1,4.6,0.6c1.1-0.2,3.1-0.9,3.7-1.7l-1.2-1.1c-0.4-0.4-0.8-0.9-1.3-1.1
			c-1.2-0.6-3,0-4.4,0c-1.5-0.1-5.3-1.9-6.8-2.6c-7.3-3-7.7-1.7-13.9,1.5c-4.1,2.1-2.7,4.1-8,6.2c-1.7,0.7-1.9,0.4-3.2,1.6
			c-0.5,0.5-1.8,1.7-2.1,2.5c-0.1,0.4-0.4,6.1,3.6,5.7c1.9-0.1,0.9-1.4,2.6-2.1c1,2.3,0.7,3.1,1.1,4.8c1.3,0.1,5.1-0.7,5.6-1.7
			c0.5-1.1-0.1-1.5,1.1-2.6c2.8-2.7,0.2-2.7-0.7-3.4c0-2.2,3.5-1.5,4.8-3.7c0.5-1,0.2-1.3,0.4-2c0.9-0.4,2.8-0.4,3.9-0.1
			c-0.2,2.3-5.6,2.3-4.5,5.4c0.8,2.3,1,2.7,3.1,1.8c1-0.4,1.3-0.3,2.4-0.3c1.7,0,3.1-0.4,3.2,1.5c-2.1,0.6-5.1-0.1-6.9,0.7
			c0.6,1,1.2,0.4,1.5,1.8c-1.3,0.4-1.7-0.3-3.2-0.2c-1.6,1.8-0.8,3-1.5,4.2c-0.7,0.2-1.2-0.2-2.1-0.4c-0.8-0.1-1.7,0.1-2.5,0.1
			c-1.7,0.1-3.5,0.7-5.4,0.3c-1.1-1.5-0.4-1.6-0.6-3.4c-1.3-0.3-2.6,0.1-2.9,1.4c-0.5,1.9,0.4,2.1,0.9,3.1c-2.5-0.1-2.6-0.7-4.3,1
			C96.7,51.7,97.4,50.5,95.2,51.6c0.4-1.8-0.6-2.6-1.6-3.4c-1.2-0.9-1.5-2.1-2.5-2.9c0.5-1.3,1.5-1.4,1.6-2.7
			c-0.7-0.6-3.9-1.1-4-1.1c-1,0-1.1,0.6-1.4,0.9c-0.9,0.8-0.8-0.5-1.8,0.4c-0.9,1,0.5,3.7,4.4,4.9c-0.7,1.2-3,2.3-3.3,4
			c0.9,0.4,1.1,0.3,2.1,0.2c0,0.1,0,0.1,0,0.2L89,53C92,50.9,92.8,54.3,95.2,51.6z M71.6,7.4c-15.4,4.2-29.2,12.3-40.3,23.1
			c0.1,0.8,0.3,1.4,0.6,2.1c0.5,1.2,0.5,1,1.8,1.5l0,0.2c-0.1,1,0.6,2.1,1.4,2.7l2.8,2.4c0.8-0.1,1.1-0.4,1.9-0.7
			c0.1,0.6,0.3,1.2,0.5,1.6c3.3,0.3,2.2-2.4,2.8-3.6c0.4-0.8,0.6-0.2,1.7-0.5l0-2.4c0.6-0.4,0.6-0.2,1.3-0.5
			c0.7-0.3,0.8-0.5,1.3-0.7c1-0.4,2.6,0,3.8-0.2c0.5-1,1.1-1.9,1.4-2.7c1.7-0.2,3.3,0.3,5-0.3c0.6-0.2,1.2-0.5,1.9-0.8
			c1.2-0.5,1.1-0.3,2.5-0.4c-0.1-0.5-0.4-0.9-0.8-1.3c-0.7-0.6-0.8-0.4-1.6-0.8l-0.3-2c2.6,0.9,1.8,0.7,2.6,2.9
			c4.3,1,0.5-3.4,1.3-5.3c1.3-0.6,2.3,0.5,3.9,0.6c0.1-1,0-1.9,0.2-2.8c0.3-1.3,0.7-1.1,1-2c-0.5-0.2-2.5-0.5-1.2-2.6
			c0.7-1,3.5-3.8,4.4-4.3c1.2-0.6,2-0.9,2.1-2.5C72.7,7.7,72.1,7.6,71.6,7.4z M83.7,70.5c0.8,0.4,1.8-0.4,2.6,1c0.6,1,0.1,0.6,0.9,1
			c0.9-2.4,0.6-1.2,2.8-1.6c1.2,0.1,2.5,0.2,3.7,0.3c-1.6,0.7-3.6,1.7-4.4,1.7c-3.9,0.1-2.1,0.1-4.8,1.8c-0.9,0.6-0.8,0.2-1.3,1.1
			c-0.6,0.9-0.9,2-1,3.3c-0.1,2.1-0.2,1.8-1.8,2.6c-3.1,1.5-3,1.3-4.1,4.9c-1.2,3.8-2,2.4-0.8,6.8c0.4,1.5,0.5,2.3-0.2,3.6
			c-0.4,0.9-1.1,2.2-1.6,2.8c1.5,2.5-0.1,3.4,1.5,4.6c1.4,1,3.4,1,4.1,2.4c0.7,1.5,1.1,3.2,2.1,4.5c0.6,0.8,2.4,2.9,3.7,3.1
			c0.7-1.9,1.3-1.9,4.1-1.6c2.5,0.2,3.2,0,4.3-1.4c1-1.2,2.2-1.7,4.1-0.9c1.3,0.6,1.5,2.1,2.2,3.4c1.7,0.3,2.2-0.4,3.2-1.1
			c0.5,0.2,1.6,1,2,1.7c-0.1,1.4-0.9,1-1.1,3.1c-0.1,1.1-0.6,2.8-0.4,3.6c1.4,1.5,1.5-0.2,2.7,3c1.9,4.9,1.3,3.1,1.6,7
			c0.1,1.1,0.4,1.3,0.7,2.1c0.8,2.5-2.7,2.5-2,7.5c-8.8,6.9-18,13-27.3,18.2c-0.4,0.2-0.7,0.4-1.1,0.6c-1.1-1.1-2.6-1.9-4.3-1.9
			c-1.1,0-2.2,0.3-3.1,0.9c-7.5-6.5-14.4-13.9-20.4-21.9c0.8-1.2,2.5-1.6,3.9-5.6c1.5-4.5-0.4-4.9-2.9-6c-1.1-0.5-0.9-1-1.8-1.7
			c-2-1.6-2.1,0.5-4.8-1.3c-1.4-0.9-2.6-2.1-4.8-2l-0.2,0.4c-0.5-1-1.1-1.9-1.6-2.9c0-0.4-0.1-0.6-0.2-0.8
			c0.1-5.8,0.6-11.6,1.5-17.4c1.1-7.2,2.7-14.4,4.8-21.5c0.2,0,0.4,0,0.7,0c3.3,0,5.9-2.6,6-5.8c5.8-0.9,11.7-1.4,17.8-1.6
			C73.4,70.2,78.5,70.3,83.7,70.5z M93.1,67.6C93,67,93,66.9,93.8,66.1c1-1,1.1-1,2.7-1.2c0.3-0.7,0.5-2,0.8-2.6
			c1.7-0.1,2.2,1,3.6,0.3c1.1-0.5,1.8-1.8,3.1-1c1.4,0.9,0.2,2.2,4.5,3.9c1.2,0.5,1.8,0.7,2.3,1.9c0.5,1.3,0.4,2.4,1.8,2.5
			c0.1-1.4-0.3-2-0.4-3.2l1.5-0.3c-0.5-0.8-1.1-1.1-1.8-1.6c-3.7-2.4-1.8-1.7-3.7-3.3c-0.9-0.8-1.3-0.7-1.1-2.1
			c1.5-0.2,2.3,1.3,3.3,2.1c1.5,1.2,1.9,1.6,3.1,2.6c0.8,0.6,1.4,2.2,2.2,3.5c0.4,0.7,0.6,2.3,0.7,3.6
			C108.8,69.5,101,68.3,93.1,67.6z M118.3,71.5c0.1-0.1,0.2-0.2,0.3-0.3c1.7-1.5,2.9-1.8,0.9-3.7c-0.5-0.5-0.2,0-0.5-0.6
			c1-0.4,2.1-1.7,3.2-1.5l0.3,4.1c0.6,0.4,1.6,0.9,2.3,1.4c1.3,1,1.1,0.8,2.8,0.7c1.2-0.1,3.8,1,4.8-0.8c0.4-0.7-0.3-0.6,1.1-0.6
			c0,1.6-0.5,2.8-0.8,4.5c0,0.2-0.1,0.4-0.2,0.6c-0.8-0.3-1.7-0.5-2.5-0.7C126.2,73.3,122.3,72.3,118.3,71.5z M130.8,78.3
			L130.8,78.3c-1.6,0.2-1.1,0.4-2.1-0.3c-0.7-0.5-1.5-0.2-2.4,0c-2,0.6-2,2.2-3.5,2.6c0.4-1.7,2-1.4,2.3-3.1c-1.1-0.7-2.6-0.3-4-0.4
			c-1.8-0.1-1.9-1.2-3.8-1c-0.5,1-1.3,2.5-1.8,3.4c-2.2,0.2-4.7-1.9-5.9-2.5c-1.1-0.5-2.1-0.6-3-1.2c-0.8-0.6-2.1-1-2.1-2.3
			c0.9-0.2,1.8-0.1,2-0.7c7.7,1.2,15.2,2.9,22.5,5C129.7,78,130.3,78.1,130.8,78.3z M142.5,105.9c-0.2,0-0.5-0.1-0.7-0.2
			c-0.4-0.4,0.2-2.9-2.7-5.6c-1.6-1.5-1.3-2.8-3.8-4.7c-2.8-2.2-0.6-3.9-1.8-6.8c-0.7-1.9-1.9-4.2-2.5-6l2-0.4
			c0.5,0.8,0.9,1.8,1.2,2.7c0.2,0.5,0.2,0.8,0.4,1.3c0.4,1.3,0.1,0.5,0.9,1.1c0.8,0.7,0.9,3.7,2.3,5.3c1.2,1.3,2.2,2.3,2.7,4.7
			c1.2,5.5,0.5,6.6,5.6,4.1C144.9,102.9,143.7,104.4,142.5,105.9z M164.9,86.7c1.4-0.2,0.8-0.7,2.1-1.1c1,0.4,0.8,0.9,1.6,1.7
			c0.9,1,1.4,0.2,2.2,1.3c0.4,1.6-0.2,2.3,1.2,3.5c1.2-0.2,1.3-0.9,2.3-1.3c0,1.8-0.1,2.8,0,4.1c-3.1-2.2-6.4-4.3-9.8-6.3
			C164.7,87.9,164.8,87.3,164.9,86.7z M42.2,150.7c1.1-0.6,4.2-1,4.4-1.2c0.5-0.6,0.6-1.4,1-2.2c0.4-0.9,0.8-1.1,1.2-2.1
			c0.4-1.1,0.6-2.4,0.7-3.6c5.6,7,11.9,13.6,18.6,19.5c-0.3,0.8-0.5,1.6-0.5,2.5c0,0.4,0,0.7,0.1,1c-5.1,2.4-10.2,4.4-15.2,6.1
			C48,164.8,44.6,158.1,42.2,150.7z M17.9,55.1c-1.2,0.4-2.5,0.9-2.8,1c0.3-2.2,0.6-2.5,2.8-2.8l0.1,0C17.9,54,17.9,54.5,17.9,55.1z
			 M241.9,54.3V5h17.5V0.8h-39.6V5h17.5v49.3H241.9z M308.9,54.3V0.8h-4.7v23.9h-33.9V0.8h-4.6v53.5h4.6V28.9h33.9v25.4H308.9z
			 M356.1,54.3v-4.2h-29.4V29h28.8v-4.2h-28.8V5h29.4V0.8h-33.9v53.5H356.1z M429.5,54.4l15.3-53.5h-18.2l-6.8,32.7l-8.1-32.7h-12.2
			l-8.1,32.7l-6.9-32.7h-18.1l15.3,53.5h17l6.9-30.3l6.9,30.3H429.5z M473,41.1c-7.8,0-12.8-5.9-12.8-13.4c0-7.5,5.1-13.4,12.8-13.4
			c7.8,0,12.8,5.9,12.8,13.4C485.8,35.1,480.8,41.1,473,41.1z M473,55.4c16.5,0,29.3-11.2,29.3-27.7C502.3,11.2,489.5,0,473,0
			c-16.5,0-29.3,11.2-29.3,27.7C443.7,44.1,456.4,55.4,473,55.4z M534.1,23.4h-9.9V15h9.9c2.7,0,5.3,1.3,5.3,4.2
			C539.4,22.1,536.8,23.4,534.1,23.4z M555.9,54.4l-9.7-18.9c4.3-2.1,9.6-7,9.6-16.2c0-10-6.7-18.4-19.3-18.4H508v53.5h16.2V37.5
			h5.9l7.4,16.8H555.9z M598.9,54.4V40.3h-20.3V0.9h-16.2v53.5H598.9z M629.3,40.3h-7.7V15h7.8c8.7,0,12.8,5.4,12.8,12.6
			C642.3,34.3,637.5,40.3,629.3,40.3z M629.4,54.4c16.8,0,29.3-9.7,29.3-26.8c0-17.1-12.5-26.7-29.4-26.7h-23.9v53.5H629.4z
			 M542.7,193.1l20.9-73c11.3,34.5,68.2,25.6,68.2,36.5c0,4.9-6.8,6.8-14,6.8c-17,0-31.1-7.2-40.5-16.2l-19.8,28.3
			c13.4,12.1,31.7,20,58.5,20c33.8,0,54.3-16,54.3-43.8c0-46.8-70-36.6-70-48.5c0-3.2,2.1-5.7,9.6-5.7c11.9,0,26,4.1,37,12.4
			l20.4-27C653,71.3,634.5,65.4,614,65.4l-34.6-0.2h-43.5l-16.3,78.2l-19.4-78.2h-29.1l-19.4,78.2l-16.5-78.2
			c-43.5,0-87.1,0-130.6,0h-0.4v60.5l-44.5-60.5H220v127.8h38.7v-64.8l46,63.2l1.1,1.6H416l-9.9-33.7h-62.7v-14h58.3l-9.5-33.7
			h-48.8V99h58.2l3.5,12.2l23.9,81.9h10.2h30l16.5-72.4l16.5,72.4H542.7z M667.8,13.9V2.3h4.2V0.9H662v1.4h4.1v11.6H667.8z
			 M686.9,13.9V0.9h-2.3l-4.1,9.8l-4.1-9.8h-2.3v13.1h1.6V3.2l4.4,10.7h0.7l4.4-10.7v10.7H686.9z M34.3,110.9c0.3-4,0.7-8,1.3-12
			c1.1-7.5,2.8-15.1,5.1-22.4c-0.7-0.6-1.2-1.3-1.6-2.2c-4.3,1-8.5,2.3-12.5,3.7c0,0.2,0,0.3,0,0.5c0,1.7-0.9,3.3-2.3,4.2
			C26.5,92.2,29.9,101.7,34.3,110.9z"/>
	</defs>
	<use xlink:href="#SVGID_1_"  overflow="visible" fill-rule="evenodd" clip-rule="evenodd" fill="#FFFFFF"/>
	<clipPath id="SVGID_2_">
		<use xlink:href="#SVGID_1_"  overflow="visible"/>
	</clipPath>
	<rect x="0" y="0" clip-path="url(#SVGID_2_)" fill="#FFFFFF" width="686.9" height="195.4"/>
</g>
</svg>
